<svg id="Layer_1" data-name="Layer 1" xmlns="http://www.w3.org/2000/svg" viewBox="0 0 131.09 128.42"><defs><style>.cls-1{fill:#8bbc46;}</style></defs><title>guaranteed</title><path class="cls-1" d="M5.77,84a8.1,8.1,0,0,0,2.72,5,8.11,8.11,0,0,0,5.25,2.23,8.07,8.07,0,0,0-2.73-5A8,8,0,0,0,5.77,84Z" transform="translate(-4.46 -5.79)"/><path class="cls-1" d="M16.46,80.06A8.66,8.66,0,0,1,15,90.73a8.65,8.65,0,0,1,1.42-10.67Z" transform="translate(-4.46 -5.79)"/><path class="cls-1" d="M4.46,74.06a8.12,8.12,0,0,0,1.93,5.36,8.13,8.13,0,0,0,4.85,3,8.06,8.06,0,0,0-1.93-5.37A8.05,8.05,0,0,0,4.46,74.06Z" transform="translate(-4.46 -5.79)"/><path class="cls-1" d="M15.63,71.82a8.1,8.1,0,0,1,.29,5.69,8.16,8.16,0,0,1-3.32,4.64,8.64,8.64,0,0,1,3-10.33Z" transform="translate(-4.46 -5.79)"/><path class="cls-1" d="M4.68,64.06a8.15,8.15,0,0,0,1.09,5.6,8.16,8.16,0,0,0,4.34,3.69A8.07,8.07,0,0,0,9,67.76,8.11,8.11,0,0,0,4.68,64.06Z" transform="translate(-4.46 -5.79)"/><path class="cls-1" d="M16.06,63.54a8.07,8.07,0,0,1-.58,5.67,8.08,8.08,0,0,1-4,4.08,8.07,8.07,0,0,1,.58-5.67A8.12,8.12,0,0,1,16.06,63.54Z" transform="translate(-4.46 -5.79)"/><path class="cls-1" d="M6.42,54.22a8.05,8.05,0,0,0,.23,5.69,8.08,8.08,0,0,0,3.72,4.31,8.05,8.05,0,0,0-.23-5.69A8,8,0,0,0,6.42,54.22Z" transform="translate(-4.46 -5.79)"/><path class="cls-1" d="M17.74,55.43a8.11,8.11,0,0,1-1.43,5.51,8.11,8.11,0,0,1-4.56,3.43,8.09,8.09,0,0,1,1.44-5.52A8.07,8.07,0,0,1,17.74,55.43Z" transform="translate(-4.46 -5.79)"/><path class="cls-1" d="M9.63,44.75A8.63,8.63,0,0,0,12,55.24,8.62,8.62,0,0,0,9.63,44.75Z" transform="translate(-4.46 -5.79)"/><path class="cls-1" d="M20.64,47.66a8.11,8.11,0,0,1-2.26,5.24,8.05,8.05,0,0,1-5,2.69,8.09,8.09,0,0,1,2.25-5.23A8.16,8.16,0,0,1,20.64,47.66Z" transform="translate(-4.46 -5.79)"/><path class="cls-1" d="M14.24,35.87A8.65,8.65,0,0,0,15,46.61,8.19,8.19,0,0,0,16.5,41.1,8.09,8.09,0,0,0,14.24,35.87Z" transform="translate(-4.46 -5.79)"/><path class="cls-1" d="M24.68,40.43a8.13,8.13,0,0,1-3,4.83,8.07,8.07,0,0,1-5.37,1.9,8.06,8.06,0,0,1,3-4.83A8.11,8.11,0,0,1,24.68,40.43Z" transform="translate(-4.46 -5.79)"/><path class="cls-1" d="M20.15,27.8a8.63,8.63,0,0,0-.88,10.73,8,8,0,0,0,2.31-5.21A8.11,8.11,0,0,0,20.15,27.8Z" transform="translate(-4.46 -5.79)"/><path class="cls-1" d="M29.77,33.89a8.12,8.12,0,0,1-3.72,4.32,8.09,8.09,0,0,1-5.6,1.06A8.08,8.08,0,0,1,24.17,35,8.13,8.13,0,0,1,29.77,33.89Z" transform="translate(-4.46 -5.79)"/><path class="cls-1" d="M27.21,20.73a8.06,8.06,0,0,0-3.08,4.8,8.12,8.12,0,0,0,.59,5.67,8.11,8.11,0,0,0,3.07-4.8A8.06,8.06,0,0,0,27.21,20.73Z" transform="translate(-4.46 -5.79)"/><path class="cls-1" d="M35.8,28.21a8.15,8.15,0,0,1-4.34,3.7,8.17,8.17,0,0,1-5.7.2,8.63,8.63,0,0,1,10-3.9Z" transform="translate(-4.46 -5.79)"/><path class="cls-1" d="M35.26,14.8a8.2,8.2,0,0,0-3.77,4.28,8.19,8.19,0,0,0-.28,5.69A8.08,8.08,0,0,0,35,20.49,8,8,0,0,0,35.26,14.8Z" transform="translate(-4.46 -5.79)"/><path class="cls-1" d="M42.62,23.5a8.1,8.1,0,0,1-4.85,3,8.07,8.07,0,0,1-5.66-.67A8.65,8.65,0,0,1,42.62,23.5Z" transform="translate(-4.46 -5.79)"/><path class="cls-1" d="M44.13,10.17a8.13,8.13,0,0,0-4.38,3.66,8.08,8.08,0,0,0-1.14,5.58A8.09,8.09,0,0,0,43,15.76,8.12,8.12,0,0,0,44.13,10.17Z" transform="translate(-4.46 -5.79)"/><path class="cls-1" d="M50.07,19.89a8.63,8.63,0,0,1-10.74.7,8.63,8.63,0,0,1,10.74-.7Z" transform="translate(-4.46 -5.79)"/><path class="cls-1" d="M134.23,84a8.65,8.65,0,0,1-8,7.23,8.65,8.65,0,0,1,8-7.23Z" transform="translate(-4.46 -5.79)"/><path class="cls-1" d="M123.54,80.06A8.66,8.66,0,0,0,125,90.73a8.65,8.65,0,0,0-1.42-10.67Z" transform="translate(-4.46 -5.79)"/><path class="cls-1" d="M135.54,74.06a8.65,8.65,0,0,1-6.78,8.36,8.63,8.63,0,0,1,6.78-8.36Z" transform="translate(-4.46 -5.79)"/><path class="cls-1" d="M124.37,71.82a8.65,8.65,0,0,0,3,10.33,8.64,8.64,0,0,0-3-10.33Z" transform="translate(-4.46 -5.79)"/><path class="cls-1" d="M135.32,64.06a8.62,8.62,0,0,1-5.43,9.29,8.64,8.64,0,0,1,5.43-9.29Z" transform="translate(-4.46 -5.79)"/><path class="cls-1" d="M123.94,63.54a8.66,8.66,0,0,0,4.56,9.75,8.66,8.66,0,0,0-4.56-9.75Z" transform="translate(-4.46 -5.79)"/><path class="cls-1" d="M133.58,54.22a8.61,8.61,0,0,1-4,10,8.64,8.64,0,0,1,4-10Z" transform="translate(-4.46 -5.79)"/><path class="cls-1" d="M122.26,55.43a8.64,8.64,0,0,0,6,8.94,8.62,8.62,0,0,0-6-8.94Z" transform="translate(-4.46 -5.79)"/><path class="cls-1" d="M130.37,44.75A8.63,8.63,0,0,1,128,55.24a8.62,8.62,0,0,1,2.39-10.49Z" transform="translate(-4.46 -5.79)"/><path class="cls-1" d="M119.36,47.66a8.65,8.65,0,0,0,7.28,7.93,8.65,8.65,0,0,0-7.28-7.93Z" transform="translate(-4.46 -5.79)"/><path class="cls-1" d="M125.76,35.87A8.65,8.65,0,0,1,125,46.61a8.19,8.19,0,0,1-1.49-5.51A8.09,8.09,0,0,1,125.76,35.87Z" transform="translate(-4.46 -5.79)"/><path class="cls-1" d="M115.32,40.43a8.66,8.66,0,0,0,8.4,6.73,8.64,8.64,0,0,0-8.4-6.73Z" transform="translate(-4.46 -5.79)"/><path class="cls-1" d="M119.86,27.8a8.64,8.64,0,0,1,.87,10.73,8.1,8.1,0,0,1-2.31-5.21A8.06,8.06,0,0,1,119.86,27.8Z" transform="translate(-4.46 -5.79)"/><path class="cls-1" d="M110.23,33.89a8.64,8.64,0,0,0,9.33,5.38,8.66,8.66,0,0,0-9.33-5.38Z" transform="translate(-4.46 -5.79)"/><path class="cls-1" d="M112.79,20.73a8.06,8.06,0,0,1,3.08,4.8,8.12,8.12,0,0,1-.59,5.67,8.11,8.11,0,0,1-3.07-4.8A8.06,8.06,0,0,1,112.79,20.73Z" transform="translate(-4.46 -5.79)"/><path class="cls-1" d="M104.2,28.21a8.66,8.66,0,0,0,10,3.9,8.63,8.63,0,0,0-10-3.9Z" transform="translate(-4.46 -5.79)"/><path class="cls-1" d="M104.74,14.8a8.15,8.15,0,0,1,3.76,4.28,8.08,8.08,0,0,1,.29,5.69A8.08,8.08,0,0,1,105,20.49,8,8,0,0,1,104.74,14.8Z" transform="translate(-4.46 -5.79)"/><path class="cls-1" d="M97.38,23.5a8.65,8.65,0,0,0,10.51,2.33A8.65,8.65,0,0,0,97.38,23.5Z" transform="translate(-4.46 -5.79)"/><path class="cls-1" d="M95.87,10.17a8.13,8.13,0,0,1,4.38,3.66,8.08,8.08,0,0,1,1.14,5.58A8.09,8.09,0,0,1,97,15.76,8.18,8.18,0,0,1,95.87,10.17Z" transform="translate(-4.46 -5.79)"/><path class="cls-1" d="M89.93,19.89a8.63,8.63,0,0,0,10.74.7,8.63,8.63,0,0,0-10.74-.7Z" transform="translate(-4.46 -5.79)"/><polygon class="cls-1" points="65.54 118.77 66.74 122.46 70.62 122.46 67.48 124.74 68.68 128.43 65.54 126.15 62.41 128.43 63.6 124.74 60.47 122.46 64.35 122.46 65.54 118.77"/><polygon class="cls-1" points="54.88 117.81 55.33 121.66 59.13 122.43 55.6 124.04 56.05 127.89 53.42 125.04 49.9 126.65 51.8 123.27 49.18 120.42 52.98 121.19 54.88 117.81"/><polygon class="cls-1" points="44.63 114.75 44.3 118.62 47.87 120.12 44.1 121 43.77 124.87 41.76 121.55 37.99 122.43 40.52 119.5 38.52 116.18 42.09 117.69 44.63 114.75"/><polygon class="cls-1" points="35.18 109.72 34.09 113.44 37.3 115.63 33.42 115.74 32.33 119.46 31.02 115.81 27.15 115.93 30.22 113.56 28.91 109.91 32.12 112.09 35.18 109.72"/><polygon class="cls-1" points="26.92 102.92 25.11 106.35 27.82 109.13 24 108.47 22.2 111.9 21.64 108.06 17.82 107.41 21.29 105.69 20.74 101.86 23.45 104.64 26.92 102.92"/><polygon class="cls-1" points="20.17 94.61 17.72 97.62 19.82 100.88 16.21 99.48 13.76 102.48 13.97 98.61 10.36 97.21 14.11 96.22 14.32 92.35 16.43 95.61 20.17 94.61"/><polygon class="cls-1" points="76.58 117.81 76.14 121.66 72.34 122.43 75.86 124.04 75.42 127.89 78.04 125.04 81.57 126.65 79.67 123.27 82.29 120.42 78.49 121.19 76.58 117.81"/><polygon class="cls-1" points="65.54 0 66.74 3.69 70.62 3.69 67.48 5.97 68.68 9.65 65.54 7.37 62.41 9.65 63.6 5.97 60.47 3.69 64.35 3.69 65.54 0"/><polygon class="cls-1" points="52.61 1.26 54.52 4.64 58.32 3.87 55.7 6.73 57.6 10.1 54.08 8.49 51.46 11.35 51.9 7.5 48.37 5.89 52.17 5.12 52.61 1.26"/><polygon class="cls-1" points="78.14 1.26 76.23 4.64 72.43 3.87 75.06 6.73 73.15 10.1 76.68 8.49 79.3 11.35 78.86 7.5 82.38 5.89 78.58 5.12 78.14 1.26"/><polygon class="cls-1" points="86.84 114.75 87.17 118.62 83.59 120.12 87.37 121 87.7 124.87 89.7 121.55 93.48 122.43 90.94 119.5 92.95 116.18 89.37 117.69 86.84 114.75"/><polygon class="cls-1" points="96.28 109.72 97.37 113.44 94.17 115.63 98.05 115.74 99.13 119.46 100.44 115.81 104.32 115.93 101.25 113.56 102.55 109.91 99.35 112.09 96.28 109.72"/><polygon class="cls-1" points="104.54 102.92 106.35 106.35 103.64 109.13 107.46 108.47 109.27 111.9 109.83 108.06 113.65 107.41 110.17 105.69 110.73 101.86 108.02 104.64 104.54 102.92"/><polygon class="cls-1" points="111.29 94.61 113.74 97.62 111.64 100.88 115.26 99.48 117.7 102.48 117.49 98.61 121.11 97.21 117.36 96.22 117.14 92.35 115.04 95.61 111.29 94.61"/><path class="cls-1" d="M5.77,84a8.1,8.1,0,0,0,2.72,5,8.11,8.11,0,0,0,5.25,2.23,8.07,8.07,0,0,0-2.73-5A8,8,0,0,0,5.77,84Z" transform="translate(-4.46 -5.79)"/><path class="cls-1" d="M16.46,80.06A8.66,8.66,0,0,1,15,90.73a8.65,8.65,0,0,1,1.42-10.67Z" transform="translate(-4.46 -5.79)"/><path class="cls-1" d="M4.46,74.06a8.12,8.12,0,0,0,1.93,5.36,8.13,8.13,0,0,0,4.85,3,8.06,8.06,0,0,0-1.93-5.37A8.05,8.05,0,0,0,4.46,74.06Z" transform="translate(-4.46 -5.79)"/><path class="cls-1" d="M15.63,71.82a8.1,8.1,0,0,1,.29,5.69,8.16,8.16,0,0,1-3.32,4.64,8.64,8.64,0,0,1,3-10.33Z" transform="translate(-4.46 -5.79)"/><path class="cls-1" d="M4.68,64.06a8.15,8.15,0,0,0,1.09,5.6,8.16,8.16,0,0,0,4.34,3.69A8.07,8.07,0,0,0,9,67.76,8.11,8.11,0,0,0,4.68,64.06Z" transform="translate(-4.46 -5.79)"/><path class="cls-1" d="M16.06,63.54a8.07,8.07,0,0,1-.58,5.67,8.08,8.08,0,0,1-4,4.08,8.07,8.07,0,0,1,.58-5.67A8.12,8.12,0,0,1,16.06,63.54Z" transform="translate(-4.46 -5.79)"/><path class="cls-1" d="M6.42,54.22a8.05,8.05,0,0,0,.23,5.69,8.08,8.08,0,0,0,3.72,4.31,8.05,8.05,0,0,0-.23-5.69A8,8,0,0,0,6.42,54.22Z" transform="translate(-4.46 -5.79)"/><path class="cls-1" d="M17.74,55.43a8.11,8.11,0,0,1-1.43,5.51,8.11,8.11,0,0,1-4.56,3.43,8.09,8.09,0,0,1,1.44-5.52A8.07,8.07,0,0,1,17.74,55.43Z" transform="translate(-4.46 -5.79)"/><path class="cls-1" d="M9.63,44.75A8.63,8.63,0,0,0,12,55.24,8.62,8.62,0,0,0,9.63,44.75Z" transform="translate(-4.46 -5.79)"/><path class="cls-1" d="M20.64,47.66a8.11,8.11,0,0,1-2.26,5.24,8.05,8.05,0,0,1-5,2.69,8.09,8.09,0,0,1,2.25-5.23A8.16,8.16,0,0,1,20.64,47.66Z" transform="translate(-4.46 -5.79)"/><path class="cls-1" d="M14.24,35.87A8.65,8.65,0,0,0,15,46.61,8.19,8.19,0,0,0,16.5,41.1,8.09,8.09,0,0,0,14.24,35.87Z" transform="translate(-4.46 -5.79)"/><path class="cls-1" d="M24.68,40.43a8.13,8.13,0,0,1-3,4.83,8.07,8.07,0,0,1-5.37,1.9,8.06,8.06,0,0,1,3-4.83A8.11,8.11,0,0,1,24.68,40.43Z" transform="translate(-4.46 -5.79)"/><path class="cls-1" d="M20.15,27.8a8.63,8.63,0,0,0-.88,10.73,8,8,0,0,0,2.31-5.21A8.11,8.11,0,0,0,20.15,27.8Z" transform="translate(-4.46 -5.79)"/><path class="cls-1" d="M29.77,33.89a8.12,8.12,0,0,1-3.72,4.32,8.09,8.09,0,0,1-5.6,1.06A8.08,8.08,0,0,1,24.17,35,8.13,8.13,0,0,1,29.77,33.89Z" transform="translate(-4.46 -5.79)"/><path class="cls-1" d="M27.21,20.73a8.06,8.06,0,0,0-3.08,4.8,8.12,8.12,0,0,0,.59,5.67,8.11,8.11,0,0,0,3.07-4.8A8.06,8.06,0,0,0,27.21,20.73Z" transform="translate(-4.46 -5.79)"/><path class="cls-1" d="M35.8,28.21a8.15,8.15,0,0,1-4.34,3.7,8.17,8.17,0,0,1-5.7.2,8.63,8.63,0,0,1,10-3.9Z" transform="translate(-4.46 -5.79)"/><path class="cls-1" d="M35.26,14.8a8.2,8.2,0,0,0-3.77,4.28,8.19,8.19,0,0,0-.28,5.69A8.08,8.08,0,0,0,35,20.49,8,8,0,0,0,35.26,14.8Z" transform="translate(-4.46 -5.79)"/><path class="cls-1" d="M42.62,23.5a8.1,8.1,0,0,1-4.85,3,8.07,8.07,0,0,1-5.66-.67A8.65,8.65,0,0,1,42.62,23.5Z" transform="translate(-4.46 -5.79)"/><path class="cls-1" d="M44.13,10.17a8.13,8.13,0,0,0-4.38,3.66,8.08,8.08,0,0,0-1.14,5.58A8.09,8.09,0,0,0,43,15.76,8.12,8.12,0,0,0,44.13,10.17Z" transform="translate(-4.46 -5.79)"/><path class="cls-1" d="M50.07,19.89a8.63,8.63,0,0,1-10.74.7,8.63,8.63,0,0,1,10.74-.7Z" transform="translate(-4.46 -5.79)"/><path class="cls-1" d="M134.23,84a8.65,8.65,0,0,1-8,7.23,8.65,8.65,0,0,1,8-7.23Z" transform="translate(-4.46 -5.79)"/><path class="cls-1" d="M123.54,80.06A8.66,8.66,0,0,0,125,90.73a8.65,8.65,0,0,0-1.42-10.67Z" transform="translate(-4.46 -5.79)"/><path class="cls-1" d="M135.54,74.06a8.65,8.65,0,0,1-6.78,8.36,8.63,8.63,0,0,1,6.78-8.36Z" transform="translate(-4.46 -5.79)"/><path class="cls-1" d="M124.37,71.82a8.65,8.65,0,0,0,3,10.33,8.64,8.64,0,0,0-3-10.33Z" transform="translate(-4.46 -5.79)"/><path class="cls-1" d="M135.32,64.06a8.62,8.62,0,0,1-5.43,9.29,8.64,8.64,0,0,1,5.43-9.29Z" transform="translate(-4.46 -5.79)"/><path class="cls-1" d="M123.94,63.54a8.66,8.66,0,0,0,4.56,9.75,8.66,8.66,0,0,0-4.56-9.75Z" transform="translate(-4.46 -5.79)"/><path class="cls-1" d="M133.58,54.22a8.61,8.61,0,0,1-4,10,8.64,8.64,0,0,1,4-10Z" transform="translate(-4.46 -5.79)"/><path class="cls-1" d="M122.26,55.43a8.64,8.64,0,0,0,6,8.94,8.62,8.62,0,0,0-6-8.94Z" transform="translate(-4.46 -5.79)"/><path class="cls-1" d="M130.37,44.75A8.63,8.63,0,0,1,128,55.24a8.62,8.62,0,0,1,2.39-10.49Z" transform="translate(-4.46 -5.79)"/><path class="cls-1" d="M119.36,47.66a8.65,8.65,0,0,0,7.28,7.93,8.65,8.65,0,0,0-7.28-7.93Z" transform="translate(-4.46 -5.79)"/><path class="cls-1" d="M125.76,35.87A8.65,8.65,0,0,1,125,46.61a8.19,8.19,0,0,1-1.49-5.51A8.09,8.09,0,0,1,125.76,35.87Z" transform="translate(-4.46 -5.79)"/><path class="cls-1" d="M115.32,40.43a8.66,8.66,0,0,0,8.4,6.73,8.64,8.64,0,0,0-8.4-6.73Z" transform="translate(-4.46 -5.79)"/><path class="cls-1" d="M119.86,27.8a8.64,8.64,0,0,1,.87,10.73,8.1,8.1,0,0,1-2.31-5.21A8.06,8.06,0,0,1,119.86,27.8Z" transform="translate(-4.46 -5.79)"/><path class="cls-1" d="M110.23,33.89a8.64,8.64,0,0,0,9.33,5.38,8.66,8.66,0,0,0-9.33-5.38Z" transform="translate(-4.46 -5.79)"/><path class="cls-1" d="M112.79,20.73a8.06,8.06,0,0,1,3.08,4.8,8.12,8.12,0,0,1-.59,5.67,8.11,8.11,0,0,1-3.07-4.8A8.06,8.06,0,0,1,112.79,20.73Z" transform="translate(-4.46 -5.79)"/><path class="cls-1" d="M104.2,28.21a8.66,8.66,0,0,0,10,3.9,8.63,8.63,0,0,0-10-3.9Z" transform="translate(-4.46 -5.79)"/><path class="cls-1" d="M104.74,14.8a8.15,8.15,0,0,1,3.76,4.28,8.08,8.08,0,0,1,.29,5.69A8.08,8.08,0,0,1,105,20.49,8,8,0,0,1,104.74,14.8Z" transform="translate(-4.46 -5.79)"/><path class="cls-1" d="M97.38,23.5a8.65,8.65,0,0,0,10.51,2.33A8.65,8.65,0,0,0,97.38,23.5Z" transform="translate(-4.46 -5.79)"/><path class="cls-1" d="M95.87,10.17a8.13,8.13,0,0,1,4.38,3.66,8.08,8.08,0,0,1,1.14,5.58A8.09,8.09,0,0,1,97,15.76,8.18,8.18,0,0,1,95.87,10.17Z" transform="translate(-4.46 -5.79)"/><path class="cls-1" d="M89.93,19.89a8.63,8.63,0,0,0,10.74.7,8.63,8.63,0,0,0-10.74-.7Z" transform="translate(-4.46 -5.79)"/><polygon class="cls-1" points="54.88 117.81 55.33 121.66 59.13 122.43 55.6 124.04 56.05 127.89 53.42 125.04 49.9 126.65 51.8 123.27 49.18 120.42 52.98 121.19 54.88 117.81"/><polygon class="cls-1" points="44.63 114.75 44.3 118.62 47.87 120.12 44.1 121 43.77 124.87 41.76 121.55 37.99 122.43 40.52 119.5 38.52 116.18 42.09 117.69 44.63 114.75"/><polygon class="cls-1" points="35.18 109.72 34.09 113.44 37.3 115.63 33.42 115.74 32.33 119.46 31.02 115.81 27.15 115.93 30.22 113.56 28.91 109.91 32.12 112.09 35.18 109.72"/><polygon class="cls-1" points="26.92 102.92 25.11 106.35 27.82 109.13 24 108.47 22.2 111.9 21.64 108.06 17.82 107.41 21.29 105.69 20.74 101.86 23.45 104.64 26.92 102.92"/><polygon class="cls-1" points="20.17 94.61 17.72 97.62 19.82 100.88 16.21 99.48 13.76 102.48 13.97 98.61 10.36 97.21 14.11 96.22 14.32 92.35 16.43 95.61 20.17 94.61"/><polygon class="cls-1" points="76.58 117.81 76.14 121.66 72.34 122.43 75.86 124.04 75.42 127.89 78.04 125.04 81.57 126.65 79.67 123.27 82.29 120.42 78.49 121.19 76.58 117.81"/><polygon class="cls-1" points="86.84 114.75 87.17 118.62 83.59 120.12 87.37 121 87.7 124.87 89.7 121.55 93.48 122.43 90.94 119.5 92.95 116.18 89.37 117.69 86.84 114.75"/><polygon class="cls-1" points="96.28 109.72 97.37 113.44 94.17 115.63 98.05 115.74 99.13 119.46 100.44 115.81 104.32 115.93 101.25 113.56 102.55 109.91 99.35 112.09 96.28 109.72"/><polygon class="cls-1" points="104.54 102.92 106.35 106.35 103.64 109.13 107.46 108.47 109.27 111.9 109.83 108.06 113.65 107.41 110.17 105.69 110.73 101.86 108.02 104.64 104.54 102.92"/><polygon class="cls-1" points="111.29 94.61 113.74 97.62 111.64 100.88 115.26 99.48 117.7 102.48 117.49 98.61 121.11 97.21 117.36 96.22 117.14 92.35 115.04 95.61 111.29 94.61"/><path class="cls-1" d="M45,58.58V85.09H37.71V67.72a21.87,21.87,0,0,1-3.44,2.18,26.74,26.74,0,0,1-4.17,1.6V65.56a17.43,17.43,0,0,0,5.74-2.86A11.7,11.7,0,0,0,39,58.58Z" transform="translate(-4.46 -5.79)"/><path class="cls-1" d="M50.09,72q0-7.44,2.68-10.4t8.15-3a12.06,12.06,0,0,1,4.32.65A8,8,0,0,1,68,60.91a9.29,9.29,0,0,1,1.68,2.19,11.08,11.08,0,0,1,1,2.68,24.76,24.76,0,0,1,.73,6.08q0,7.1-2.4,10.39c-1.6,2.19-4.35,3.28-8.27,3.28a11.69,11.69,0,0,1-5.31-1,8.69,8.69,0,0,1-3.33-3.08,11.53,11.53,0,0,1-1.47-3.94A27,27,0,0,1,50.09,72Zm7.18,0c0,3.32.3,5.58.88,6.8a2.78,2.78,0,0,0,2.56,1.82,2.7,2.7,0,0,0,1.91-.77,4.85,4.85,0,0,0,1.19-2.45,26,26,0,0,0,.38-5.21q0-5.19-.88-7a2.82,2.82,0,0,0-2.64-1.78,2.69,2.69,0,0,0-2.6,1.82Q57.28,67,57.27,72Z" transform="translate(-4.46 -5.79)"/><path class="cls-1" d="M74.29,72q0-7.44,2.68-10.4t8.15-3a12.06,12.06,0,0,1,4.32.65,8,8,0,0,1,2.76,1.68,9.29,9.29,0,0,1,1.68,2.19,11.08,11.08,0,0,1,1,2.68,24.76,24.76,0,0,1,.73,6.08q0,7.1-2.4,10.39c-1.6,2.19-4.35,3.28-8.27,3.28a11.69,11.69,0,0,1-5.31-1,8.69,8.69,0,0,1-3.33-3.08,11.53,11.53,0,0,1-1.47-3.94A27,27,0,0,1,74.29,72Zm7.18,0c0,3.32.3,5.58.88,6.8a2.78,2.78,0,0,0,2.56,1.82,2.7,2.7,0,0,0,1.91-.77A4.85,4.85,0,0,0,88,77.37a26,26,0,0,0,.38-5.21q0-5.19-.88-7a2.82,2.82,0,0,0-2.64-1.78,2.69,2.69,0,0,0-2.6,1.82Q81.47,67,81.47,72Z" transform="translate(-4.46 -5.79)"/><path class="cls-1" d="M96.51,64.13a3.88,3.88,0,0,1,.4-1.73,2.71,2.71,0,0,1,1.21-1.25,3.89,3.89,0,0,1,1.92-.44,3.52,3.52,0,0,1,2.58.93,3.78,3.78,0,0,1,0,5,3.52,3.52,0,0,1-2.58.93,3.89,3.89,0,0,1-1.92-.44,2.69,2.69,0,0,1-1.21-1.26A3.82,3.82,0,0,1,96.51,64.13Zm2.5,0a2.78,2.78,0,0,0,.36,1.6.85.85,0,0,0,1.34,0,3.83,3.83,0,0,0,0-3.2.86.86,0,0,0-1.34,0A2.76,2.76,0,0,0,99,64.15Zm8.57-3.44h1.88l-7.53,13.92h-1.86Zm-1.67,10.47a4,4,0,0,1,.39-1.73,2.78,2.78,0,0,1,1.21-1.26,4,4,0,0,1,1.92-.44,3.49,3.49,0,0,1,2.59.94,3.77,3.77,0,0,1,0,5,3.49,3.49,0,0,1-2.59.94,4,4,0,0,1-1.92-.44,2.78,2.78,0,0,1-1.21-1.26A4,4,0,0,1,105.91,71.18Zm2.5,0a2.87,2.87,0,0,0,.35,1.6.77.77,0,0,0,.67.32.8.8,0,0,0,.68-.32,2.87,2.87,0,0,0,.35-1.6,2.91,2.91,0,0,0-.35-1.61.8.8,0,0,0-.68-.32.75.75,0,0,0-.67.33A2.85,2.85,0,0,0,108.41,71.2Z" transform="translate(-4.46 -5.79)"/><path class="cls-1" d="M32.92,95.37V93.74h3.73v3.34a7.88,7.88,0,0,1-1.89,1,6.33,6.33,0,0,1-2,.26,4.72,4.72,0,0,1-2.27-.47,3.31,3.31,0,0,1-1.36-1.41,4.7,4.7,0,0,1-.48-2.16,4.43,4.43,0,0,1,.53-2.23,3.34,3.34,0,0,1,1.54-1.43,4.94,4.94,0,0,1,2.14-.38,6.21,6.21,0,0,1,1.94.23,2.53,2.53,0,0,1,1.07.73,3.43,3.43,0,0,1,.64,1.25l-2.33.42a1.28,1.28,0,0,0-.49-.68,1.5,1.5,0,0,0-.88-.24,1.6,1.6,0,0,0-1.27.56,2.66,2.66,0,0,0-.47,1.74,2.76,2.76,0,0,0,.48,1.82,1.68,1.68,0,0,0,1.33.54,2.43,2.43,0,0,0,.77-.12,3.72,3.72,0,0,0,.85-.4v-.73Z" transform="translate(-4.46 -5.79)"/><path class="cls-1" d="M43.18,90.38h2.41V95a3.79,3.79,0,0,1-.22,1.31,2.89,2.89,0,0,1-.67,1.08,2.81,2.81,0,0,1-1,.64,4.77,4.77,0,0,1-1.69.26,9.43,9.43,0,0,1-1.25-.08,3.15,3.15,0,0,1-1.13-.31,2.92,2.92,0,0,1-.83-.68,2.42,2.42,0,0,1-.51-.9A4.7,4.7,0,0,1,38.09,95V90.38h2.42v4.77a1.34,1.34,0,0,0,.35,1,1.31,1.31,0,0,0,1,.36,1.33,1.33,0,0,0,1-.35,1.37,1.37,0,0,0,.36-1Z" transform="translate(-4.46 -5.79)"/><path class="cls-1" d="M51.62,96.91H48.88L48.5,98.2H46L49,90.38h2.64l2.94,7.82H52Zm-.5-1.69-.86-2.81-.85,2.81Z" transform="translate(-4.46 -5.79)"/><path class="cls-1" d="M55.35,98.2V90.38h4a5.86,5.86,0,0,1,1.72.19,1.87,1.87,0,0,1,.95.71,2.2,2.2,0,0,1-.68,3.16,2.93,2.93,0,0,1-.85.31,2.35,2.35,0,0,1,.63.29,2.25,2.25,0,0,1,.39.41,3.49,3.49,0,0,1,.34.48L63,98.2H60.31L59,95.81a1.83,1.83,0,0,0-.44-.6A1,1,0,0,0,58,95h-.22V98.2Zm2.42-4.65h1a3.78,3.78,0,0,0,.64-.11.67.67,0,0,0,.4-.24.75.75,0,0,0,.15-.46.73.73,0,0,0-.24-.58,1.49,1.49,0,0,0-.9-.2H57.77Z" transform="translate(-4.46 -5.79)"/><path class="cls-1" d="M68.62,96.91H65.88L65.5,98.2H63L66,90.38H68.6l2.94,7.82H69Zm-.5-1.69-.86-2.81-.86,2.81Z" transform="translate(-4.46 -5.79)"/><path class="cls-1" d="M72.33,90.38h2.25l3,4.33V90.38h2.28V98.2H77.53L74.6,93.91V98.2H72.33Z" transform="translate(-4.46 -5.79)"/><path class="cls-1" d="M80.86,90.38h7.35v1.93H85.74V98.2H83.33V92.31H80.86Z" transform="translate(-4.46 -5.79)"/><path class="cls-1" d="M89.3,90.38h6.47v1.67h-4v1.24h3.76v1.6H91.72v1.54h4.17V98.2H89.3Z" transform="translate(-4.46 -5.79)"/><path class="cls-1" d="M97.19,90.38h6.47v1.67h-4v1.24h3.76v1.6H99.61v1.54h4.17V98.2H97.19Z" transform="translate(-4.46 -5.79)"/><path class="cls-1" d="M105.11,90.38h3.59a4.37,4.37,0,0,1,1.72.29,2.71,2.71,0,0,1,1.08.83,3.26,3.26,0,0,1,.62,1.25,5.73,5.73,0,0,1,.19,1.51,5.3,5.3,0,0,1-.28,1.95,3.3,3.3,0,0,1-.8,1.16,2.64,2.64,0,0,1-1.08.62,5.7,5.7,0,0,1-1.45.21h-3.59Zm2.42,1.77v4.27h.59a2.53,2.53,0,0,0,1.08-.16,1.19,1.19,0,0,0,.5-.59,3.71,3.71,0,0,0,.18-1.36,2.64,2.64,0,0,0-.4-1.7,1.71,1.71,0,0,0-1.35-.46Z" transform="translate(-4.46 -5.79)"/><path class="cls-1" d="M26.33,52.46l2.3-.15a1.81,1.81,0,0,0,.3.86,1.3,1.3,0,0,0,1.07.47,1.21,1.21,0,0,0,.8-.24.75.75,0,0,0,.28-.56.71.71,0,0,0-.27-.55,3.08,3.08,0,0,0-1.24-.45,5.4,5.4,0,0,1-2.27-1,1.93,1.93,0,0,1-.68-1.51A2.09,2.09,0,0,1,27,48.24,2.24,2.24,0,0,1,28,47.4a4.81,4.81,0,0,1,1.92-.31,4,4,0,0,1,2.29.56,2.38,2.38,0,0,1,.94,1.77l-2.28.14a1.22,1.22,0,0,0-.38-.77,1.24,1.24,0,0,0-.81-.24,1,1,0,0,0-.63.18.53.53,0,0,0-.21.43.47.47,0,0,0,.17.34,2,2,0,0,0,.81.28,9.64,9.64,0,0,1,2.27.7,2.39,2.39,0,0,1,1,.86,2.19,2.19,0,0,1,.31,1.16A2.56,2.56,0,0,1,33,53.89a2.65,2.65,0,0,1-1.17,1,4.62,4.62,0,0,1-1.88.33,3.87,3.87,0,0,1-2.76-.77A3,3,0,0,1,26.33,52.46Z" transform="translate(-4.46 -5.79)"/><path class="cls-1" d="M39.45,53.75H36.7L36.32,55H33.86l2.94-7.82h2.63L42.37,55H39.84ZM39,52.06l-.87-2.81-.85,2.81Z" transform="translate(-4.46 -5.79)"/><path class="cls-1" d="M41.84,47.22h7.34v1.94H46.72V55H44.3V49.16H41.84Z" transform="translate(-4.46 -5.79)"/><path class="cls-1" d="M50.37,47.22h2.42V55H50.37Z" transform="translate(-4.46 -5.79)"/><path class="cls-1" d="M54.11,52.46l2.3-.15a1.81,1.81,0,0,0,.3.86,1.29,1.29,0,0,0,1.07.47,1.17,1.17,0,0,0,.79-.24.71.71,0,0,0,.28-.56.7.7,0,0,0-.26-.55,3.08,3.08,0,0,0-1.24-.45,5.34,5.34,0,0,1-2.27-1,1.93,1.93,0,0,1-.68-1.51,2.09,2.09,0,0,1,.35-1.14,2.24,2.24,0,0,1,1-.84,4.81,4.81,0,0,1,1.92-.31,4,4,0,0,1,2.29.56A2.42,2.42,0,0,1,61,49.42l-2.28.14a1.22,1.22,0,0,0-.38-.77,1.26,1.26,0,0,0-.81-.24,1,1,0,0,0-.63.18.54.54,0,0,0-.22.43.45.45,0,0,0,.18.34,1.88,1.88,0,0,0,.81.28,9.8,9.8,0,0,1,2.27.7,2.39,2.39,0,0,1,1,.86,2.19,2.19,0,0,1,.31,1.16,2.56,2.56,0,0,1-.41,1.39,2.65,2.65,0,0,1-1.17,1,4.66,4.66,0,0,1-1.88.33A3.87,3.87,0,0,1,55,54.41,2.94,2.94,0,0,1,54.11,52.46Z" transform="translate(-4.46 -5.79)"/><path class="cls-1" d="M62.43,47.22h6V48.9H64.86v1.37h3v1.58h-3V55H62.43Z" transform="translate(-4.46 -5.79)"/><path class="cls-1" d="M73.48,53.75H70.74L70.36,55H67.89l2.94-7.82h2.64L76.41,55H73.87ZM73,52.06l-.86-2.81-.86,2.81Z" transform="translate(-4.46 -5.79)"/><path class="cls-1" d="M82.18,51.84l2.12.64A3.93,3.93,0,0,1,83.63,54a2.93,2.93,0,0,1-1.14.9,4.12,4.12,0,0,1-1.73.31,5.1,5.1,0,0,1-2.08-.37,3.29,3.29,0,0,1-1.4-1.31,4.39,4.39,0,0,1-.59-2.38,4.07,4.07,0,0,1,1-3A4.69,4.69,0,0,1,83,47.69a3.58,3.58,0,0,1,1.26,1.83L82.09,50a1.72,1.72,0,0,0-.23-.52,1.37,1.37,0,0,0-.5-.43,1.38,1.38,0,0,0-.65-.15,1.42,1.42,0,0,0-1.26.66,2.82,2.82,0,0,0-.33,1.54,2.94,2.94,0,0,0,.39,1.78,1.56,1.56,0,0,0,2.16.09A2.33,2.33,0,0,0,82.18,51.84Z" transform="translate(-4.46 -5.79)"/><path class="cls-1" d="M84.93,47.22h7.34v1.94H89.81V55H87.39V49.16H84.93Z" transform="translate(-4.46 -5.79)"/><path class="cls-1" d="M93.46,47.22h2.42V55H93.46Z" transform="translate(-4.46 -5.79)"/><path class="cls-1" d="M97.31,51.14a3.71,3.71,0,0,1,4-4,4.08,4.08,0,0,1,3,1,4,4,0,0,1,1.06,2.94,4.74,4.74,0,0,1-.47,2.24,3.25,3.25,0,0,1-1.33,1.37,4.33,4.33,0,0,1-2.17.49,5,5,0,0,1-2.19-.42,3.3,3.3,0,0,1-1.41-1.34A4.42,4.42,0,0,1,97.31,51.14Zm2.42,0a2.63,2.63,0,0,0,.44,1.7,1.66,1.66,0,0,0,2.4,0A2.85,2.85,0,0,0,103,51a2.4,2.4,0,0,0-.45-1.61,1.51,1.51,0,0,0-1.2-.51,1.47,1.47,0,0,0-1.18.52A2.64,2.64,0,0,0,99.73,51.15Z" transform="translate(-4.46 -5.79)"/><path class="cls-1" d="M106.73,47.22H109l3,4.33V47.22h2.27V55h-2.27L109,50.75V55h-2.28Z" transform="translate(-4.46 -5.79)"/></svg>